HIERARCHY
ROOT Hips
{
	OFFSET -0.001795 -0.223333 0.028219
	CHANNELS 6 Xposition Yposition Zposition Zrotation Yrotation Xrotation 
	JOINT LeftUpLeg
	{
		OFFSET 0.069520 -0.091406 -0.006815
		CHANNELS 3 Zrotation Yrotation Xrotation
		JOINT LeftLeg
		{
			OFFSET 0.034277 -0.375199 -0.004496
			CHANNELS 3 Zrotation Yrotation Xrotation
			JOINT LeftFoot
			{
				OFFSET -0.013596 -0.397961 -0.043693
				CHANNELS 3 Zrotation Yrotation Xrotation
				JOINT LeftToe
				{
					OFFSET 0.026358 -0.055791 0.119288
					CHANNELS 3 Zrotation Yrotation Xrotation
					End Site
					{
						OFFSET 0.000000 0.000000 0.000000
					}
				}
			}
		}
	}
	JOINT RightUpLeg
	{
		OFFSET -0.067670 -0.090522 -0.004320
		CHANNELS 3 Zrotation Yrotation Xrotation
		JOINT RightLeg
		{
			OFFSET -0.038290 -0.382569 -0.008850
			CHANNELS 3 Zrotation Yrotation Xrotation
			JOINT RightFoot
			{
				OFFSET 0.015774 -0.398415 -0.042312
				CHANNELS 3 Zrotation Yrotation Xrotation
				JOINT RightToe
				{
					OFFSET -0.025372 -0.048144 0.123348
					CHANNELS 3 Zrotation Yrotation Xrotation
					End Site
					{
						OFFSET 0.000000 0.000000 0.000000
					}
				}
			}
		}
	}
	JOINT Spine
	{
		OFFSET -0.002533 0.108963 -0.026696
		CHANNELS 3 Zrotation Yrotation Xrotation
		JOINT Spine1
		{
			OFFSET 0.005487 0.135180 0.001092
			CHANNELS 3 Zrotation Yrotation Xrotation
			JOINT Spine2
			{
				OFFSET 0.001457 0.052922 0.025425
				CHANNELS 3 Zrotation Yrotation Xrotation
				JOINT Neck
				{
					OFFSET -0.002778 0.213870 -0.042857
					CHANNELS 3 Zrotation Yrotation Xrotation
					JOINT Head
					{
						OFFSET 0.005152 0.064970 0.051349
						CHANNELS 3 Zrotation Yrotation Xrotation
						End Site
						{
							OFFSET 0.000000 0.000000 0.000000
						}
					}
				}
				JOINT LeftShoulder
				{
					OFFSET 0.078845 0.121749 -0.034090
					CHANNELS 3 Zrotation Yrotation Xrotation
					JOINT LeftArm
					{
						OFFSET 0.090977 0.030469 -0.008868
						CHANNELS 3 Zrotation Yrotation Xrotation
						JOINT LeftForeArm
						{
							OFFSET 0.259612 -0.012772 -0.027456
							CHANNELS 3 Zrotation Yrotation Xrotation
							JOINT LeftHand
							{
								OFFSET 0.249234 0.008986 -0.001171
								CHANNELS 3 Zrotation Yrotation Xrotation
								End Site
								{
									OFFSET 0.000000 0.000000 0.000000
								}
							}
						}
					}
				}
				JOINT RightShoulder
				{
					OFFSET -0.081759 0.118833 -0.038615
					CHANNELS 3 Zrotation Yrotation Xrotation
					JOINT RightArm
					{
						OFFSET -0.096012 0.032551 -0.009143
						CHANNELS 3 Zrotation Yrotation Xrotation
						JOINT RightForeArm
						{
							OFFSET -0.253742 -0.013329 -0.021401
							CHANNELS 3 Zrotation Yrotation Xrotation
							JOINT RightHand
							{
								OFFSET -0.255298 0.007772 -0.005559
								CHANNELS 3 Zrotation Yrotation Xrotation
								End Site
								{
									OFFSET 0.000000 0.000000 0.000000
								}
							}
						}
					}
				}
			}
		}
	}
}
MOTION
Frames: 7
Frame Time: 0.050000
-0.087021 0.939398 -0.014083 -0.721069 -21.704138 10.172482 7.633573 -0.017558 -8.128236 -5.658541 0.809416 -5.600472 -1.594591 -1.052745 10.292348 0.000000 0.000000 0.000000 -2.271204 1.466194 -14.038994 5.516483 -0.202489 -2.558463 -6.437330 -18.935641 12.968155 0.000000 0.000000 0.000000 -1.702899 0.152222 14.551887 -0.744121 1.569151 13.814056 4.418454 2.029144 -0.182272 -1.804660 1.556125 -20.652430 0.000000 0.000000 0.000000 -31.400155 -29.677120 21.623228 -38.208480 -26.541177 2.880925 14.292840 -46.127460 -3.603179 0.000000 0.000000 0.000000 26.583383 43.870939 24.050920 14.539824 26.927520 1.188974 -34.749139 39.922405 -11.059854 0.000000 0.000000 0.000000 
-0.087852 0.938863 -0.015262 -0.469221 -21.000256 10.023534 7.647847 -0.028793 -8.381508 -5.899356 0.831470 -5.361305 -1.930324 -1.564663 10.265159 0.000000 0.000000 0.000000 -2.389260 1.420571 -13.732971 5.435641 -0.206216 -2.978949 -6.808968 -19.459031 12.962692 0.000000 0.000000 0.000000 -1.403817 0.069913 14.212950 -0.889267 1.620552 13.868843 4.011237 2.480344 -0.187817 -1.431692 1.443139 -20.638071 0.000000 0.000000 0.000000 -31.235252 -30.195697 21.576331 -38.545288 -26.528950 3.023437 14.092967 -46.050930 -3.557420 0.000000 0.000000 0.000000 26.048445 44.695097 24.824147 12.626699 28.203891 0.862447 -35.553541 37.319256 -10.437797 0.000000 0.000000 0.000000 
-0.088730 0.938203 -0.015516 -0.186389 -20.406298 9.665837 7.278520 -0.076338 -8.558285 -5.578811 0.789546 -4.726895 -2.144946 -1.966129 9.901732 0.000000 0.000000 0.000000 -2.694410 1.364303 -13.369654 5.609555 -0.218172 -3.020168 -7.181628 -19.944433 12.755418 0.000000 0.000000 0.000000 -1.211268 0.023056 14.272257 -0.999338 1.611429 13.539576 3.858509 2.685853 0.007278 -1.223765 1.360324 -20.066246 0.000000 0.000000 0.000000 -31.390863 -30.029076 21.288173 -38.622720 -26.106406 2.931253 12.899436 -46.699359 -3.125831 0.000000 0.000000 0.000000 26.045820 44.375829 24.743407 12.805314 28.925805 0.916305 -36.067783 37.625111 -10.711922 0.000000 0.000000 0.000000 
-0.089967 0.937693 -0.015009 -0.080696 -19.672697 9.324643 7.085119 -0.105556 -8.367575 -5.234896 0.739604 -4.586203 -2.448017 -2.488749 9.656572 0.000000 0.000000 0.000000 -2.970822 1.282367 -12.747222 6.081970 -0.230773 -3.316740 -7.581388 -20.485475 12.697759 0.000000 0.000000 0.000000 -1.218888 0.001050 14.027375 -0.710758 1.397314 13.642429 3.524291 2.810192 -0.191458 -1.275417 1.430483 -19.734717 0.000000 0.000000 0.000000 -32.027320 -29.682482 20.987554 -38.557738 -25.400071 2.746501 10.980622 -47.021357 -2.364022 0.000000 0.000000 0.000000 27.151380 43.599195 24.756648 14.839565 28.039977 1.242754 -35.657694 40.058749 -11.370344 0.000000 0.000000 0.000000 
-0.091421 0.937390 -0.014009 -0.031084 -19.075890 8.998029 7.029353 -0.117364 -8.342184 -5.040450 0.712927 -4.036799 -2.679354 -2.920954 9.344013 0.000000 0.000000 0.000000 -2.873804 1.241251 -12.403544 5.991447 -0.248781 -3.040720 -7.915130 -20.931295 12.477382 0.000000 0.000000 0.000000 -1.179644 -0.021336 13.925401 -0.570416 1.278081 13.742869 3.431411 2.587113 -0.223665 -1.443397 1.519732 -19.528698 0.000000 0.000000 0.000000 -32.357011 -29.034042 20.562829 -38.658642 -24.695366 2.531305 8.931758 -47.322772 -1.502226 0.000000 0.000000 0.000000 28.250631 42.287944 24.131949 18.033286 26.430012 1.686846 -33.841800 44.306985 -12.091772 0.000000 0.000000 0.000000 
-0.092868 0.937233 -0.013190 0.050729 -18.415989 9.032386 6.661132 -0.168803 -8.567344 -4.328065 0.618417 -3.810436 -2.911953 -3.331076 9.174206 0.000000 0.000000 0.000000 -3.017266 1.209003 -12.156082 6.247318 -0.256562 -3.354104 -8.253623 -21.430689 12.561069 0.000000 0.000000 0.000000 -1.371701 -0.002756 13.833276 -0.509521 1.184572 13.609326 3.083675 2.215387 -0.478309 -2.162182 1.912809 -20.041076 0.000000 0.000000 0.000000 -32.610553 -28.398519 20.183211 -38.077572 -24.617848 2.432375 7.026021 -46.820171 -0.673326 0.000000 0.000000 0.000000 29.209393 40.968433 23.408394 21.089500 24.709224 2.009309 -29.819145 47.387737 -11.348261 0.000000 0.000000 0.000000 
-0.093892 0.937057 -0.013049 -0.016707 -17.893164 9.083327 6.704679 -0.178066 -8.873154 -4.104512 0.586456 -3.429349 -3.102228 -3.670912 9.009122 0.000000 0.000000 0.000000 -2.753805 1.238079 -12.415607 6.019769 -0.275634 -2.799418 -8.551650 -21.879831 12.453348 0.000000 0.000000 0.000000 -1.657043 0.033739 13.683953 -0.988461 1.436267 13.567999 3.260933 1.881771 -0.142603 -2.634879 2.155069 -20.664625 0.000000 0.000000 0.000000 -31.894033 -28.514664 20.146455 -38.646938 -25.121009 2.631393 7.372451 -46.373558 -0.786606 0.000000 0.000000 0.000000 29.355094 40.209492 22.771539 24.194728 23.110998 2.239571 -25.797712 48.378043 -9.883641 0.000000 0.000000 0.000000 
